<mxfile host="Electron" modified="2025-04-16T23:22:01.628Z" agent="Mozilla/5.0 (Windows NT 10.0; Win64; x64) AppleWebKit/537.36 (KHTML, like Gecko) draw.io/21.6.5 Chrome/114.0.5735.243 Electron/25.3.1 Safari/537.36" etag="m_3NXTJqqgVp_mgpXJaN" version="21.6.5" type="device">
  <diagram id="6a731a19-8d31-9384-78a2-239565b7b9f0" name="Page-1">
    <mxGraphModel dx="1912" dy="1115" grid="1" gridSize="10" guides="1" tooltips="1" connect="1" arrows="1" fold="1" page="1" pageScale="1" pageWidth="1169" pageHeight="827" background="none" math="0" shadow="0">
      <root>
        <mxCell id="0" />
        <mxCell id="1" parent="0" />
        <mxCell id="1350" value="Databases" style="ellipse;whiteSpace=wrap;html=1;shadow=0;fontFamily=Helvetica;fontSize=20;fontColor=#FFFFFF;align=center;strokeWidth=3;fillColor=#3B5966;strokeColor=none;" parent="1" vertex="1">
          <mxGeometry x="810" y="540" width="120" height="120" as="geometry" />
        </mxCell>
        <mxCell id="1353" value="Azure" style="ellipse;whiteSpace=wrap;html=1;shadow=0;fontFamily=Helvetica;fontSize=20;fontColor=#FFFFFF;align=center;strokeWidth=3;fillColor=#3B5966;strokeColor=none;" parent="1" vertex="1">
          <mxGeometry x="1440" y="990" width="120" height="120" as="geometry" />
        </mxCell>
        <mxCell id="1358" value="SQL Server (MSSMS)" style="rounded=1;fillColor=#3B5966;strokeColor=none;strokeWidth=3;shadow=0;html=1;fontColor=#FFFFFF;" parent="1" vertex="1">
          <mxGeometry x="585" y="660" width="130" height="40" as="geometry" />
        </mxCell>
        <mxCell id="1359" style="endArrow=none;strokeWidth=6;strokeColor=#D5E8D4;html=1;" parent="1" source="1515" target="1350" edge="1">
          <mxGeometry relative="1" as="geometry" />
        </mxCell>
        <mxCell id="1362" style="endArrow=none;strokeWidth=6;strokeColor=#D5E8D4;html=1;" parent="1" source="1515" target="1353" edge="1">
          <mxGeometry relative="1" as="geometry" />
        </mxCell>
        <mxCell id="1363" style="endArrow=none;strokeWidth=6;strokeColor=#D5E8D4;html=1;" parent="1" source="1515" target="1516" edge="1">
          <mxGeometry relative="1" as="geometry" />
        </mxCell>
        <mxCell id="1369" value="PostgreSQL" style="rounded=1;fillColor=#3B5966;strokeColor=none;strokeWidth=3;shadow=0;html=1;fontColor=#FFFFFF;" parent="1" vertex="1">
          <mxGeometry x="570" y="500" width="130" height="40" as="geometry" />
        </mxCell>
        <mxCell id="1371" value="MongoDB" style="rounded=1;fillColor=#3B5966;strokeColor=none;strokeWidth=3;shadow=0;html=1;fontColor=#FFFFFF;" parent="1" vertex="1">
          <mxGeometry x="645" y="346.5" width="130" height="40" as="geometry" />
        </mxCell>
        <mxCell id="1372" value="SQLite" style="rounded=1;fillColor=#3B5966;strokeColor=none;strokeWidth=3;shadow=0;html=1;fontColor=#FFFFFF;" parent="1" vertex="1">
          <mxGeometry x="810" y="320" width="130" height="40" as="geometry" />
        </mxCell>
        <mxCell id="1374" value="MySQL" style="rounded=1;fillColor=#3B5966;strokeColor=none;strokeWidth=3;shadow=0;html=1;fontColor=#FFFFFF;" parent="1" vertex="1">
          <mxGeometry x="960" y="414" width="130" height="40" as="geometry" />
        </mxCell>
        <mxCell id="1379" value="" style="edgeStyle=none;endArrow=none;strokeWidth=3;strokeColor=#D5E8D4;html=1;" parent="1" source="1350" target="1358" edge="1">
          <mxGeometry x="-221.5" y="56.5" width="100" height="100" as="geometry">
            <mxPoint x="15" y="356.5" as="sourcePoint" />
            <mxPoint x="115" y="256.5" as="targetPoint" />
          </mxGeometry>
        </mxCell>
        <mxCell id="1381" value="" style="edgeStyle=none;endArrow=none;strokeWidth=3;strokeColor=#D5E8D4;html=1;" parent="1" source="1350" target="1369" edge="1">
          <mxGeometry x="-221.5" y="56.5" width="100" height="100" as="geometry">
            <mxPoint x="15" y="356.5" as="sourcePoint" />
            <mxPoint x="115" y="256.5" as="targetPoint" />
          </mxGeometry>
        </mxCell>
        <mxCell id="1383" value="" style="edgeStyle=none;endArrow=none;strokeWidth=3;strokeColor=#D5E8D4;html=1;" parent="1" source="1350" target="1371" edge="1">
          <mxGeometry x="-221.5" y="56.5" width="100" height="100" as="geometry">
            <mxPoint x="15" y="356.5" as="sourcePoint" />
            <mxPoint x="115" y="256.5" as="targetPoint" />
          </mxGeometry>
        </mxCell>
        <mxCell id="1384" value="" style="edgeStyle=none;endArrow=none;strokeWidth=3;strokeColor=#D5E8D4;html=1;" parent="1" source="1350" target="1372" edge="1">
          <mxGeometry x="-221.5" y="56.5" width="100" height="100" as="geometry">
            <mxPoint x="15" y="356.5" as="sourcePoint" />
            <mxPoint x="115" y="256.5" as="targetPoint" />
          </mxGeometry>
        </mxCell>
        <mxCell id="1386" value="" style="edgeStyle=none;endArrow=none;strokeWidth=3;strokeColor=#D5E8D4;html=1;" parent="1" source="1350" target="1374" edge="1">
          <mxGeometry x="-221.5" y="56.5" width="100" height="100" as="geometry">
            <mxPoint x="15" y="356.5" as="sourcePoint" />
            <mxPoint x="115" y="256.5" as="targetPoint" />
          </mxGeometry>
        </mxCell>
        <mxCell id="1436" value="Blob Storage" style="rounded=1;fillColor=#3B5966;strokeColor=none;strokeWidth=3;shadow=0;html=1;fontColor=#FFFFFF;" parent="1" vertex="1">
          <mxGeometry x="1530" y="860" width="120" height="40" as="geometry" />
        </mxCell>
        <mxCell id="1439" value="Web Apps" style="rounded=1;fillColor=#3B5966;strokeColor=none;strokeWidth=3;shadow=0;html=1;fontColor=#FFFFFF;" parent="1" vertex="1">
          <mxGeometry x="1754" y="900" width="120" height="40" as="geometry" />
        </mxCell>
        <mxCell id="1442" value="Functions" style="rounded=1;fillColor=#3B5966;strokeColor=none;strokeWidth=3;shadow=0;html=1;fontColor=#FFFFFF;" parent="1" vertex="1">
          <mxGeometry x="1710" y="1060" width="120" height="40" as="geometry" />
        </mxCell>
        <mxCell id="1443" value="Static Web Apps" style="rounded=1;fillColor=#3B5966;strokeColor=none;strokeWidth=3;shadow=0;html=1;fontColor=#FFFFFF;" parent="1" vertex="1">
          <mxGeometry x="1780" y="1230" width="120" height="40" as="geometry" />
        </mxCell>
        <mxCell id="1445" value="Resource Groups" style="rounded=1;fillColor=#3B5966;strokeColor=none;strokeWidth=3;shadow=0;html=1;fontColor=#FFFFFF;" parent="1" vertex="1">
          <mxGeometry x="1530" y="1210" width="120" height="40" as="geometry" />
        </mxCell>
        <mxCell id="1447" value="" style="edgeStyle=none;endArrow=none;strokeWidth=3;strokeColor=#D5E8D4;html=1;" parent="1" source="1353" target="1436" edge="1">
          <mxGeometry x="-24" y="196.5" width="100" height="100" as="geometry">
            <mxPoint x="-310" y="290" as="sourcePoint" />
            <mxPoint x="-210" y="190" as="targetPoint" />
          </mxGeometry>
        </mxCell>
        <mxCell id="1450" value="" style="edgeStyle=none;endArrow=none;strokeWidth=3;strokeColor=#D5E8D4;html=1;" parent="1" source="1353" target="1439" edge="1">
          <mxGeometry x="-24" y="196.5" width="100" height="100" as="geometry">
            <mxPoint x="-310" y="290" as="sourcePoint" />
            <mxPoint x="-210" y="190" as="targetPoint" />
          </mxGeometry>
        </mxCell>
        <mxCell id="1452" value="" style="edgeStyle=none;endArrow=none;strokeWidth=3;strokeColor=#D5E8D4;html=1;" parent="1" source="1353" target="1442" edge="1">
          <mxGeometry x="-24" y="196.5" width="100" height="100" as="geometry">
            <mxPoint x="-310" y="290" as="sourcePoint" />
            <mxPoint x="-210" y="190" as="targetPoint" />
          </mxGeometry>
        </mxCell>
        <mxCell id="1454" value="" style="edgeStyle=none;endArrow=none;strokeWidth=3;strokeColor=#D5E8D4;html=1;" parent="1" source="1353" target="1443" edge="1">
          <mxGeometry x="-24" y="196.5" width="100" height="100" as="geometry">
            <mxPoint x="-310" y="290" as="sourcePoint" />
            <mxPoint x="-210" y="190" as="targetPoint" />
          </mxGeometry>
        </mxCell>
        <mxCell id="1456" value="" style="edgeStyle=none;endArrow=none;strokeWidth=3;strokeColor=#D5E8D4;html=1;" parent="1" source="1353" target="1445" edge="1">
          <mxGeometry x="-24" y="196.5" width="100" height="100" as="geometry">
            <mxPoint x="-310" y="290" as="sourcePoint" />
            <mxPoint x="-210" y="190" as="targetPoint" />
          </mxGeometry>
        </mxCell>
        <mxCell id="1515" value="Tech Stack" style="ellipse;whiteSpace=wrap;html=1;shadow=0;fontFamily=Helvetica;fontSize=30;fontColor=#D5E8D4;align=center;strokeColor=#D5E8D4;strokeWidth=6;fillColor=#3B5966;fontStyle=1;gradientColor=none;" parent="1" vertex="1">
          <mxGeometry x="1060" y="736.5" width="220" height="220" as="geometry" />
        </mxCell>
        <mxCell id="1516" value="Front End" style="ellipse;whiteSpace=wrap;html=1;shadow=0;fontFamily=Helvetica;fontSize=20;fontColor=#FFFFFF;align=center;strokeWidth=3;fillColor=#3B5966;strokeColor=none;" parent="1" vertex="1">
          <mxGeometry x="910" y="1050" width="120" height="120" as="geometry" />
        </mxCell>
        <mxCell id="1517" value="Bootstrap" style="rounded=1;fillColor=#3B5966;strokeColor=none;strokeWidth=3;shadow=0;html=1;fontColor=#FFFFFF;" parent="1" vertex="1">
          <mxGeometry x="690" y="1070" width="120" height="40" as="geometry" />
        </mxCell>
        <mxCell id="1519" value="CSS/HTML" style="rounded=1;fillColor=#3B5966;strokeColor=none;strokeWidth=3;shadow=0;html=1;fontColor=#FFFFFF;" parent="1" vertex="1">
          <mxGeometry x="1065" y="1221" width="120" height="40" as="geometry" />
        </mxCell>
        <mxCell id="1522" value="jQuery" style="rounded=1;fillColor=#3B5966;strokeColor=none;strokeWidth=3;shadow=0;html=1;fontColor=#FFFFFF;" parent="1" vertex="1">
          <mxGeometry x="665" y="1230" width="120" height="40" as="geometry" />
        </mxCell>
        <mxCell id="1525" value="JavaScript" style="rounded=1;fillColor=#3B5966;strokeColor=none;strokeWidth=3;shadow=0;html=1;fontColor=#FFFFFF;" parent="1" vertex="1">
          <mxGeometry x="890" y="1330" width="120" height="40" as="geometry" />
        </mxCell>
        <mxCell id="1528" value="" style="edgeStyle=none;endArrow=none;strokeWidth=3;strokeColor=#D5E8D4;html=1;" parent="1" source="1516" target="1517" edge="1">
          <mxGeometry x="-1498" y="-303.5" width="100" height="100" as="geometry">
            <mxPoint x="-1010" y="245" as="sourcePoint" />
            <mxPoint x="-910" y="145" as="targetPoint" />
          </mxGeometry>
        </mxCell>
        <mxCell id="1531" value="" style="edgeStyle=none;endArrow=none;strokeWidth=3;strokeColor=#D5E8D4;html=1;" parent="1" source="1516" target="1519" edge="1">
          <mxGeometry x="-1498" y="-303.5" width="100" height="100" as="geometry">
            <mxPoint x="-1010" y="245" as="sourcePoint" />
            <mxPoint x="-910" y="145" as="targetPoint" />
          </mxGeometry>
        </mxCell>
        <mxCell id="1534" value="" style="edgeStyle=none;endArrow=none;strokeWidth=3;strokeColor=#D5E8D4;html=1;" parent="1" source="1516" target="1522" edge="1">
          <mxGeometry x="-1498" y="-303.5" width="100" height="100" as="geometry">
            <mxPoint x="-1010" y="245" as="sourcePoint" />
            <mxPoint x="-910" y="145" as="targetPoint" />
          </mxGeometry>
        </mxCell>
        <mxCell id="1537" value="" style="edgeStyle=none;endArrow=none;strokeWidth=3;strokeColor=#D5E8D4;html=1;" parent="1" source="1516" target="1525" edge="1">
          <mxGeometry x="-1498" y="-303.5" width="100" height="100" as="geometry">
            <mxPoint x="-1010" y="245" as="sourcePoint" />
            <mxPoint x="-910" y="145" as="targetPoint" />
          </mxGeometry>
        </mxCell>
        <mxCell id="1542" style="edgeStyle=none;rounded=0;html=1;exitX=0.5;exitY=1;endArrow=none;endFill=0;jettySize=auto;orthogonalLoop=1;strokeColor=#736CA8;strokeWidth=2;fillColor=#64bbe2;fontSize=20;fontColor=#23445D;" parent="1" edge="1">
          <mxGeometry relative="1" as="geometry">
            <mxPoint x="625" y="1220" as="sourcePoint" />
            <mxPoint x="625" y="1220" as="targetPoint" />
          </mxGeometry>
        </mxCell>
        <mxCell id="gvC20BntPgbNfR_e31YH-1543" value=".NET" style="ellipse;whiteSpace=wrap;html=1;shadow=0;fontFamily=Helvetica;fontSize=20;fontColor=#FFFFFF;align=center;strokeWidth=3;fillColor=#3B5966;strokeColor=none;" vertex="1" parent="1">
          <mxGeometry x="1460" y="616.5" width="120" height="120" as="geometry" />
        </mxCell>
        <mxCell id="gvC20BntPgbNfR_e31YH-1544" value="MVC" style="rounded=1;fillColor=#3B5966;strokeColor=none;strokeWidth=3;shadow=0;html=1;fontColor=#FFFFFF;" vertex="1" parent="1">
          <mxGeometry x="1230" y="530" width="130" height="40" as="geometry" />
        </mxCell>
        <mxCell id="gvC20BntPgbNfR_e31YH-1545" value="SignalR" style="rounded=1;fillColor=#3B5966;strokeColor=none;strokeWidth=3;shadow=0;html=1;fontColor=#FFFFFF;" vertex="1" parent="1">
          <mxGeometry x="1250" y="340" width="130" height="40" as="geometry" />
        </mxCell>
        <mxCell id="gvC20BntPgbNfR_e31YH-1546" value="Dapper" style="rounded=1;fillColor=#3B5966;strokeColor=none;strokeWidth=3;shadow=0;html=1;fontColor=#FFFFFF;" vertex="1" parent="1">
          <mxGeometry x="1520" y="430" width="130" height="40" as="geometry" />
        </mxCell>
        <mxCell id="gvC20BntPgbNfR_e31YH-1547" value="" style="edgeStyle=none;endArrow=none;strokeWidth=3;strokeColor=#D5E8D4;html=1;" edge="1" parent="1" source="gvC20BntPgbNfR_e31YH-1543" target="gvC20BntPgbNfR_e31YH-1552">
          <mxGeometry x="-221.5" y="56.5" width="100" height="100" as="geometry">
            <mxPoint x="775" y="366.5" as="sourcePoint" />
            <mxPoint x="1484" y="660" as="targetPoint" />
          </mxGeometry>
        </mxCell>
        <mxCell id="gvC20BntPgbNfR_e31YH-1548" value="" style="edgeStyle=none;endArrow=none;strokeWidth=3;strokeColor=#D5E8D4;html=1;" edge="1" parent="1" source="gvC20BntPgbNfR_e31YH-1543" target="gvC20BntPgbNfR_e31YH-1544">
          <mxGeometry x="-221.5" y="56.5" width="100" height="100" as="geometry">
            <mxPoint x="775" y="366.5" as="sourcePoint" />
            <mxPoint x="875" y="266.5" as="targetPoint" />
          </mxGeometry>
        </mxCell>
        <mxCell id="gvC20BntPgbNfR_e31YH-1549" value="" style="edgeStyle=none;endArrow=none;strokeWidth=3;strokeColor=#D5E8D4;html=1;" edge="1" parent="1" source="gvC20BntPgbNfR_e31YH-1543" target="gvC20BntPgbNfR_e31YH-1545">
          <mxGeometry x="-221.5" y="56.5" width="100" height="100" as="geometry">
            <mxPoint x="775" y="366.5" as="sourcePoint" />
            <mxPoint x="875" y="266.5" as="targetPoint" />
          </mxGeometry>
        </mxCell>
        <mxCell id="gvC20BntPgbNfR_e31YH-1550" value="" style="edgeStyle=none;endArrow=none;strokeWidth=3;strokeColor=#D5E8D4;html=1;" edge="1" parent="1" source="gvC20BntPgbNfR_e31YH-1543" target="gvC20BntPgbNfR_e31YH-1546">
          <mxGeometry x="-221.5" y="56.5" width="100" height="100" as="geometry">
            <mxPoint x="775" y="366.5" as="sourcePoint" />
            <mxPoint x="875" y="266.5" as="targetPoint" />
          </mxGeometry>
        </mxCell>
        <mxCell id="gvC20BntPgbNfR_e31YH-1551" value="" style="edgeStyle=none;endArrow=none;strokeWidth=3;strokeColor=#D5E8D4;html=1;" edge="1" parent="1" source="gvC20BntPgbNfR_e31YH-1543" target="gvC20BntPgbNfR_e31YH-1553">
          <mxGeometry x="-221.5" y="56.5" width="100" height="100" as="geometry">
            <mxPoint x="775" y="366.5" as="sourcePoint" />
            <mxPoint x="1766" y="464" as="targetPoint" />
          </mxGeometry>
        </mxCell>
        <mxCell id="gvC20BntPgbNfR_e31YH-1552" value="EF Core" style="rounded=1;fillColor=#3B5966;strokeColor=none;strokeWidth=3;shadow=0;html=1;fontColor=#FFFFFF;" vertex="1" parent="1">
          <mxGeometry x="1705" y="650" width="130" height="40" as="geometry" />
        </mxCell>
        <mxCell id="gvC20BntPgbNfR_e31YH-1553" value="Blazor" style="rounded=1;fillColor=#3B5966;strokeColor=none;strokeWidth=3;shadow=0;html=1;fontColor=#FFFFFF;" vertex="1" parent="1">
          <mxGeometry x="1689" y="510" width="130" height="40" as="geometry" />
        </mxCell>
        <mxCell id="gvC20BntPgbNfR_e31YH-1554" style="endArrow=none;strokeWidth=6;strokeColor=#D5E8D4;html=1;entryX=1;entryY=0;entryDx=0;entryDy=0;" edge="1" parent="1" source="gvC20BntPgbNfR_e31YH-1543" target="1515">
          <mxGeometry relative="1" as="geometry">
            <mxPoint x="1449" y="819" as="sourcePoint" />
            <mxPoint x="1280" y="680" as="targetPoint" />
          </mxGeometry>
        </mxCell>
        <mxCell id="gvC20BntPgbNfR_e31YH-1555" value="" style="edgeStyle=none;endArrow=none;strokeWidth=3;strokeColor=#D5E8D4;html=1;" edge="1" parent="1" source="gvC20BntPgbNfR_e31YH-1556" target="gvC20BntPgbNfR_e31YH-1553">
          <mxGeometry x="-221.5" y="56.5" width="100" height="100" as="geometry">
            <mxPoint x="1910" y="490" as="sourcePoint" />
            <mxPoint x="1777" y="410" as="targetPoint" />
          </mxGeometry>
        </mxCell>
        <mxCell id="gvC20BntPgbNfR_e31YH-1556" value="Server" style="rounded=1;fillColor=#3B5966;strokeColor=none;strokeWidth=3;shadow=0;html=1;fontColor=#FFFFFF;" vertex="1" parent="1">
          <mxGeometry x="1880" y="540" width="130" height="40" as="geometry" />
        </mxCell>
        <mxCell id="gvC20BntPgbNfR_e31YH-1557" value="" style="edgeStyle=none;endArrow=none;strokeWidth=3;strokeColor=#D5E8D4;html=1;" edge="1" parent="1" source="gvC20BntPgbNfR_e31YH-1558" target="gvC20BntPgbNfR_e31YH-1553">
          <mxGeometry x="-221.5" y="56.5" width="100" height="100" as="geometry">
            <mxPoint x="1974" y="320" as="sourcePoint" />
            <mxPoint x="1835" y="323.77990430622026" as="targetPoint" />
          </mxGeometry>
        </mxCell>
        <mxCell id="gvC20BntPgbNfR_e31YH-1558" value="WASM" style="rounded=1;fillColor=#3B5966;strokeColor=none;strokeWidth=3;shadow=0;html=1;fontColor=#FFFFFF;" vertex="1" parent="1">
          <mxGeometry x="1880" y="430" width="130" height="40" as="geometry" />
        </mxCell>
      </root>
    </mxGraphModel>
  </diagram>
</mxfile>
